<svg xmlns="http://www.w3.org/2000/svg" viewBox="0 0 24 24">
  <path fill="#ffffff" d="m12.7921 11.725 3.6146-2.3738c.0909-.0592.2013.0397.151.136l-1.4986 2.9416c-.0354.0707.0158.1537.0944.1537h.8973c.1033 0 .1457.1315.0618.1916l-4.0517 2.9027c-.0362.0265-.0856.0265-.1227 0l-4.05168-2.9027c-.08301-.0601-.04062-.1916.06182-.1916h.89634c.07948 0 .1307-.083.09449-.1537l-1.49862-2.9416c-.04945-.0963.06094-.1952.1519-.136l3.61545 2.3738c.0627.0415.113.098.1465.1651l.5511 1.1057c.0389.0777.1501.0777.189 0l.551-1.1057c.0336-.0671.0839-.1245.1466-.1651z"/>
</svg>
